<svg width="25" height="25" viewBox="0 0 25 25" fill="none" xmlns="http://www.w3.org/2000/svg">
<path d="M5.63711 4.6709L4.67041 5.63759V19.0442L5.63711 20.0109H19.0437L20.0117 19.0442V5.63759L19.0437 4.6709H5.63711Z" fill="#FFFFFE"/>
<path d="M12.3406 3.23281L4.11523 1.4707L5.63729 4.67053L12.3406 3.23281Z" fill="#1A1B19"/>
<path d="M5.63721 4.67014H19.0438L12.3405 3.23242L5.63721 4.67014Z" fill="#4B4B48"/>
<path d="M20.5672 1.47059C17.6165 0.490196 14.805 0 12.1325 0C9.4601 0 6.78767 0.490196 4.11523 1.47059L12.3406 3.2327L20.5672 1.47059Z" fill="#0F100E"/>
<path d="M12.3403 3.23281L19.0436 4.67053L20.567 1.4707L12.3403 3.23281Z" fill="#151614"/>
<path d="M21.4468 12.3399L23.209 4.11328L20.0117 5.63664L21.4468 12.3399Z" fill="#FFFFFE"/>
<path d="M20.0117 5.63672V19.0433L21.4468 12.34L20.0117 5.63672Z" fill="#FFFFFE"/>
<path d="M23.2089 20.5666V4.11328L21.4468 12.3399L23.2089 20.5666Z" fill="#FFFFFE"/>
<path d="M21.4468 12.3408L20.0117 19.0441L23.209 20.5675L21.4468 12.3408Z" fill="#FFFFFE"/>
<path d="M21.4468 12.3399L23.209 4.11328L20.0117 5.63664L21.4468 12.3399Z" fill="#151614"/>
<path d="M20.0117 5.63672V19.0433L21.4468 12.34L20.0117 5.63672Z" fill="#4B4B48"/>
<path d="M24.6795 12.3157C24.6795 9.57791 24.1893 6.84377 23.2089 4.11328L21.4468 12.3399L23.2089 20.5666C24.1893 17.8038 24.6795 15.0535 24.6795 12.3157Z" fill="#0E0F0D"/>
<path d="M21.4468 12.3408L20.0117 19.0441L23.209 20.5675L21.4468 12.3408Z" fill="#0F100E"/>
<path d="M12.3403 21.4459L20.567 23.2093L19.0436 20.0107H19.0423H19.0436L12.3403 21.4459Z" fill="#FFFFFE"/>
<path d="M19.0425 20.0107H5.63721L12.3405 21.4459L19.0425 20.0107Z" fill="#FFFFFE"/>
<path d="M4.11523 23.2087H20.5672L12.3406 21.4453L4.11523 23.2087Z" fill="#FFFFFE"/>
<path d="M12.3406 21.4459L5.63729 20.0107L4.11523 23.2093L12.3406 21.4459Z" fill="#FFFFFE"/>
<path d="M12.3403 21.4459L20.567 23.2093L19.0436 20.0107H19.0423H19.0436L12.3403 21.4459Z" fill="#4B4B48"/>
<path d="M19.0425 20.0107H5.63721L12.3405 21.4459L19.0425 20.0107Z" fill="#151614"/>
<path d="M12.0406 24.6793C14.8374 24.6793 17.6796 24.1891 20.5672 23.2087L12.3406 21.4453L4.11523 23.2087C6.60201 24.1891 9.2438 24.6793 12.0406 24.6793Z" fill="#0F100E"/>
<path d="M12.3406 21.4459L5.63729 20.0107L4.11523 23.2093L12.3406 21.4459Z" fill="#242523"/>
<path d="M3.23411 12.3408L1.4707 20.5675L4.67053 19.0441V19.0428V19.0441L3.23411 12.3408Z" fill="#0F100E"/>
<path d="M4.67031 19.042V5.63672L3.23389 12.34L4.67031 19.042Z" fill="#151614"/>
<path d="M0 12.6834C0 15.3629 0.490196 17.9907 1.47059 20.5666L3.234 12.3399L1.47059 4.11328C0.490196 7.14707 0 10.0038 0 12.6834Z" fill="#151614"/>
<path d="M3.23411 12.3399L4.67053 5.63664L1.4707 4.11328L3.23411 12.3399Z" fill="#4B4B48"/>
<path d="M19.0435 4.67053L20.5668 1.4707L23.2087 4.11387L20.0114 5.63723L19.0435 4.67053Z" fill="#0F100E"/>
<path d="M5.63723 4.67053L4.67053 5.63723L1.4707 4.11387L4.11517 1.4707L5.63723 4.67053Z" fill="#0F100E"/>
<path d="M4.67053 19.042L5.63723 20.01L4.11517 23.2085L1.4707 20.5666L4.67053 19.042Z" fill="#4B4B48"/>
<path d="M20.5671 23.2092L23.209 20.5673L20.0118 19.0439L19.0425 20.0106L20.5671 23.2092Z" fill="#161615"/>
<path d="M4.67041 5.63759L5.63711 4.6709H19.0437L20.0117 5.63759V19.0442L19.0424 20.0109H5.63711L4.67041 19.0429V5.63759Z" fill="#242523"/>
</svg>
