<svg width="25" height="25" viewBox="0 0 25 25" fill="none" xmlns="http://www.w3.org/2000/svg">
<path d="M5.63694 4.6709L4.66895 5.63759V19.0442L5.63694 20.0109H19.0435L20.0102 19.0442V5.63759L19.0435 4.6709H5.63694Z" fill="#FFFFFE"/>
<path d="M12.3404 3.23281L4.11377 1.4707L5.63713 4.67053L12.3404 3.23281Z" fill="#24387F"/>
<path d="M5.63721 4.67014H19.0438L12.3405 3.23242L5.63721 4.67014Z" fill="#566CA5"/>
<path d="M12.2243 0C9.50334 0 6.79984 0.490196 4.11377 1.47059L12.3404 3.2327L20.5658 1.47059C17.7257 0.490196 14.9452 0 12.2243 0Z" fill="#1A2040"/>
<path d="M12.3403 3.23281L19.0436 4.67053L20.5657 1.4707L12.3403 3.23281Z" fill="#283268"/>
<path d="M21.4467 12.3399L23.2088 4.11328L20.0103 5.63664L21.4467 12.3399Z" fill="#FFFFFE"/>
<path d="M20.0103 5.63672V19.0433L21.4467 12.34L20.0103 5.63672Z" fill="#FFFFFE"/>
<path d="M23.2089 20.5666V4.11328L21.4468 12.3399L23.2089 20.5666Z" fill="#FFFFFE"/>
<path d="M21.4467 12.3408L20.0103 19.0441L23.2088 20.5675L21.4467 12.3408Z" fill="#FFFFFE"/>
<path d="M21.4467 12.3399L23.2088 4.11328L20.0103 5.63664L21.4467 12.3399Z" fill="#28326D"/>
<path d="M20.0103 5.63672V19.0433L21.4467 12.34L20.0103 5.63672Z" fill="#566CA5"/>
<path d="M24.6795 12.1319C24.6795 9.4276 24.1893 6.75473 23.2089 4.11328L21.4468 12.3399L23.2089 20.5666C24.1893 17.6477 24.6795 14.8362 24.6795 12.1319Z" fill="#131731"/>
<path d="M21.4467 12.3408L20.0103 19.0441L23.2088 20.5675L21.4467 12.3408Z" fill="#1A2040"/>
<path d="M12.3403 21.4459L20.567 23.2093L19.0436 20.0107H19.0423H19.0436L12.3403 21.4459Z" fill="#FFFFFE"/>
<path d="M19.0425 20.0107H5.63721L12.3405 21.4459L19.0425 20.0107Z" fill="#FFFFFE"/>
<path d="M4.11377 23.2087H20.5671L12.3404 21.4453L4.11377 23.2087Z" fill="#FFFFFE"/>
<path d="M12.3404 21.4459L5.63713 20.0107L4.11377 23.2093L12.3404 21.4459Z" fill="#FFFFFE"/>
<path d="M12.3403 21.4459L20.567 23.2093L19.0436 20.0107H19.0423H19.0436L12.3403 21.4459Z" fill="#566CA5"/>
<path d="M19.0425 20.0107H5.63721L12.3405 21.4459L19.0425 20.0107Z" fill="#28326D"/>
<path d="M12.0405 24.6793C14.8374 24.6793 17.6796 24.1891 20.5671 23.2087L12.3404 21.4453L4.11377 23.2087C6.60131 24.1891 9.24354 24.6793 12.0405 24.6793Z" fill="#1A2040"/>
<path d="M12.3404 21.4459L5.63713 20.0107L4.11377 23.2093L12.3404 21.4459Z" fill="#2A478B"/>
<path d="M3.23281 12.3408L1.4707 20.5675L4.67053 19.0441V19.0428V19.0441L3.23281 12.3408Z" fill="#1A2040"/>
<path d="M4.67063 19.042V5.63672L3.23291 12.34L4.67063 19.042Z" fill="#283268"/>
<path d="M0 12.3157C0 15.0623 0.490196 17.8126 1.47059 20.5666L3.2327 12.3399L1.47059 4.11328C0.490196 6.83493 0 9.56907 0 12.3157Z" fill="#283268"/>
<path d="M3.23281 12.3399L4.67053 5.63664L1.4707 4.11328L3.23281 12.3399Z" fill="#566CA5"/>
<path d="M19.0435 4.67053L20.5655 1.4707L23.2087 4.11387L20.0102 5.63723L19.0435 4.67053Z" fill="#1A2040"/>
<path d="M5.63723 4.67053L4.67053 5.63723L1.4707 4.11387L4.11387 1.4707L5.63723 4.67053Z" fill="#191F3E"/>
<path d="M4.67053 19.042L5.63723 20.01L4.11387 23.2085L1.4707 20.5666L4.67053 19.042Z" fill="#566CA5"/>
<path d="M20.5671 23.2092L23.209 20.5673L20.0105 19.0439L19.0425 20.0106L20.5671 23.2092Z" fill="#28346E"/>
<path d="M4.67041 5.63759L5.63711 4.6709H19.0437L20.0104 5.63759V19.0442L19.0424 20.0109H5.63711L4.67041 19.0429V5.63759Z" fill="#2A478B"/>
</svg>
