<svg width="25" height="25" viewBox="0 0 25 25" fill="none" xmlns="http://www.w3.org/2000/svg">
<path d="M5.63694 4.6709L4.66895 5.63759V19.0442L5.63694 20.0109H19.0435L20.0102 19.0442V5.63759L19.0435 4.6709H5.63694Z" fill="#FFFFFE"/>
<path d="M12.3404 3.23281L4.11377 1.4707L5.63583 4.67053H5.63713L12.3404 3.23281Z" fill="#9D9E9A"/>
<path d="M5.63721 4.67014H19.0438L12.3405 3.23242L5.63721 4.67014Z" fill="#EAEAE5"/>
<path d="M12.6838 0C9.87912 0 7.02243 0.490196 4.11377 1.47059L12.3404 3.2327L20.5658 1.47059C18.1159 0.490196 15.4886 0 12.6838 0Z" fill="#6E6E6B"/>
<path d="M12.3403 3.23281L19.0436 4.67053L20.5657 1.4707L12.3403 3.23281Z" fill="#8B8C88"/>
<path d="M21.4467 12.3399L23.2088 4.11328L20.0103 5.63664L21.4467 12.3399Z" fill="#FFFFFE"/>
<path d="M20.0103 5.63672V19.0433L21.4467 12.34L20.0103 5.63672Z" fill="#FFFFFE"/>
<path d="M23.2089 20.5666V4.11328L21.4468 12.3399L23.2089 20.5666Z" fill="#FFFFFE"/>
<path d="M21.4467 12.3408L20.0103 19.0441L23.2088 20.5675L21.4467 12.3408Z" fill="#FFFFFE"/>
<path d="M21.4467 12.3399L23.2088 4.11328L20.0103 5.63664L21.4467 12.3399Z" fill="#8E908C"/>
<path d="M20.0103 5.63672V19.0433L21.4467 12.34L20.0103 5.63672Z" fill="#EAEAE5"/>
<path d="M24.6795 12.3157C24.6795 9.57791 24.1893 6.84377 23.2089 4.11328L21.4468 12.3399L23.2089 20.5666C24.1893 17.8038 24.6795 15.0535 24.6795 12.3157Z" fill="#5C5C59"/>
<path d="M21.4467 12.3408L20.0103 19.0441L23.2088 20.5675L21.4467 12.3408Z" fill="#6E6E6B"/>
<path d="M12.3403 21.4459L20.5657 23.2093L19.0436 20.0107H19.0423H19.0436L12.3403 21.4459Z" fill="#FFFFFE"/>
<path d="M19.0425 20.0107H5.63721L12.3392 21.4459L19.0425 20.0107Z" fill="#FFFFFE"/>
<path d="M4.11377 23.2087H20.5658L12.3404 21.4453L4.11377 23.2087Z" fill="#FFFFFE"/>
<path d="M12.3391 21.4459L5.63713 20.0107L4.11377 23.2093L12.3391 21.4459Z" fill="#FFFFFE"/>
<path d="M12.3403 21.4459L20.5657 23.2093L19.0436 20.0107H19.0423H19.0436L12.3403 21.4459Z" fill="#EAEAE5"/>
<path d="M19.0425 20.0107H5.63721L12.3392 21.4459L19.0425 20.0107Z" fill="#8E908C"/>
<path d="M12.5919 24.6793C15.2879 24.6793 17.9459 24.1891 20.5658 23.2087L12.3404 21.4453L4.11377 23.2087C7.06987 24.1891 9.89592 24.6793 12.5919 24.6793Z" fill="#6E6E6B"/>
<path d="M12.3391 21.4459L5.63713 20.0107L4.11377 23.2093L12.3391 21.4459Z" fill="#B4B5B1"/>
<path d="M3.23411 12.3408L1.4707 20.5675L4.66923 19.0441V19.0428V19.0441L3.23411 12.3408Z" fill="#6E6E6B"/>
<path d="M4.66901 19.042V5.63672L3.23389 12.34L4.66901 19.042Z" fill="#8B8C88"/>
<path d="M0 12.6834C0 15.3629 0.490196 17.9907 1.47059 20.5666L3.234 12.3399L1.47059 4.11328C0.490196 7.14707 0 10.0038 0 12.6834Z" fill="#B4B5B1"/>
<path d="M3.23411 12.3399L4.66923 5.63664L1.4707 4.11328L3.23411 12.3399Z" fill="#EAEAE5"/>
<path d="M19.0435 4.67053L20.5655 1.4707L23.2087 4.11387L20.0102 5.63723L19.0435 4.67053Z" fill="#6E6E6B"/>
<path d="M5.63723 4.67053L4.66923 5.63723L1.4707 4.11387L4.11387 1.4707L5.63723 4.67053Z" fill="#6B6B68"/>
<path d="M4.66923 19.042L5.63723 20.01L4.11387 23.2085L1.4707 20.5666L4.66923 19.042Z" fill="#EAEAE5"/>
<path d="M20.5658 23.2092L23.209 20.5673L20.0105 19.0439L19.0425 20.0106L20.5658 23.2092Z" fill="#8E908C"/>
<path d="M4.66895 5.63759L5.63694 4.6709H19.0435L20.0102 5.63759V19.0442L19.0422 20.0109H5.63694L4.66895 19.0429V5.63759Z" fill="#B4B5B1"/>
</svg>
