<svg width="25" height="25" viewBox="0 0 25 25" fill="none" xmlns="http://www.w3.org/2000/svg">
<path d="M5.63564 4.6709L4.66895 5.63759V19.0442L5.63564 20.0109H19.0422L20.0089 19.0442V5.63759L19.0422 4.6709H5.63564Z" fill="#FFFFFE"/>
<path d="M12.3391 3.23281L4.11377 1.4707L5.63583 4.67053H5.63713H5.63583L12.3391 3.23281Z" fill="#2DAB66"/>
<path d="M5.63721 4.67014H19.0425L12.3392 3.23242L5.63721 4.67014Z" fill="#80C394"/>
<path d="M12.2243 0C9.50334 0 6.79984 0.490196 4.11377 1.47059L12.3391 3.2327L20.5658 1.47059C17.7257 0.490196 14.9452 0 12.2243 0Z" fill="#176539"/>
<path d="M12.3389 3.23281L19.0422 4.67053L20.5655 1.4707L12.3389 3.23281Z" fill="#009857"/>
<path d="M21.4457 12.3399L23.2078 4.11328L20.0093 5.63664L21.4457 12.3399Z" fill="#FFFFFE"/>
<path d="M20.0093 5.63672V19.0433L21.4457 12.34L20.0093 5.63672Z" fill="#FFFFFE"/>
<path d="M23.2074 20.5666V4.11328L21.4453 12.3399L23.2074 20.5666Z" fill="#FFFFFE"/>
<path d="M21.4457 12.3408L20.0093 19.0441L23.2078 20.5675L21.4457 12.3408Z" fill="#FFFFFE"/>
<path d="M21.4457 12.3399L23.2078 4.11328L20.0093 5.63664L21.4457 12.3399Z" fill="#009E58"/>
<path d="M20.0093 5.63672V19.0433L21.4457 12.34L20.0093 5.63672Z" fill="#77BF8A"/>
<path d="M24.678 12.3157C24.678 9.57791 24.1878 6.84377 23.2074 4.11328L21.4453 12.3399L23.2074 20.5666C24.1878 17.8038 24.678 15.0535 24.678 12.3157Z" fill="#115231"/>
<path d="M21.4457 12.3408L20.0093 19.0441L23.2078 20.5675L21.4457 12.3408Z" fill="#176539"/>
<path d="M12.3389 21.4459L20.5655 23.2093L19.0422 20.0107L12.3389 21.4459Z" fill="#FFFFFE"/>
<path d="M19.0423 20.0107H5.63574L12.339 21.4459L19.0423 20.0107Z" fill="#FFFFFE"/>
<path d="M4.11377 23.2087H20.5658L12.3391 21.4453L4.11377 23.2087Z" fill="#FFFFFE"/>
<path d="M12.3391 21.4459L5.63583 20.0107L4.11377 23.2093L12.3391 21.4459Z" fill="#FFFFFE"/>
<path d="M12.3389 21.4459L20.5655 23.2093L19.0422 20.0107L12.3389 21.4459Z" fill="#80C394"/>
<path d="M19.0423 20.0107H5.63574L12.339 21.4459L19.0423 20.0107Z" fill="#009E58"/>
<path d="M12.5 24.6793C15.2128 24.6793 17.9014 24.1891 20.5658 23.2087L12.3391 21.4453L4.11377 23.2087C6.99183 24.1891 9.78725 24.6793 12.5 24.6793Z" fill="#176539"/>
<path d="M12.3391 21.4459L5.63583 20.0107L4.11377 23.2093L12.3391 21.4459Z" fill="#4AB062"/>
<path d="M3.23281 12.3408L1.4707 20.5675L4.66923 19.0441V19.0428V19.0441L3.23281 12.3408Z" fill="#176539"/>
<path d="M4.66933 19.042V5.63672L3.23291 12.34L4.66933 19.042Z" fill="#009857"/>
<path d="M0 12.2238C0 14.9872 0.490196 17.7681 1.47059 20.5666L3.2327 12.3399L1.47059 4.11328C0.490196 6.7569 0 9.4604 0 12.2238Z" fill="#009857"/>
<path d="M3.23281 12.3399L4.66923 5.63664L1.4707 4.11328L3.23281 12.3399Z" fill="#80C394"/>
<path d="M19.0425 4.67053L20.5658 1.4707L23.2077 4.11387L20.0092 5.63723L19.0425 4.67053Z" fill="#176539"/>
<path d="M5.63723 4.67053L4.66923 5.63723L1.4707 4.11387L4.11387 1.4707L5.63723 4.67053Z" fill="#176236"/>
<path d="M4.66923 19.042L5.63593 20.01L4.11387 23.2085L1.4707 20.5666L4.66923 19.042Z" fill="#80C394"/>
<path d="M20.5658 23.2092L23.2077 20.5673L20.0092 19.0439L19.0425 20.0106L20.5658 23.2092Z" fill="#009E58"/>
<path d="M4.66895 5.63759L5.63694 4.6709H19.0422L20.0089 5.63759V19.0442L19.0422 20.0109H5.63564L4.66895 19.0429V5.63759Z" fill="#4AB062"/>
</svg>
