<svg width="25" height="25" viewBox="0 0 25 25" fill="none" xmlns="http://www.w3.org/2000/svg">
<path d="M5.63564 4.6709L4.66895 5.63759V19.0442L5.63564 20.0109H19.0435L20.0102 19.0442V5.63759L19.0435 4.6709H5.63564Z" fill="#FFFFFE"/>
<path d="M12.3391 3.23281L4.11377 1.4707L5.63583 4.67053H5.63713H5.63583L12.3391 3.23281Z" fill="#E3672A"/>
<path d="M5.63721 4.67014H19.0438L12.3405 3.23242L5.63721 4.67014Z" fill="#F2BB38"/>
<path d="M12.4081 0C9.65364 0 6.88886 0.490196 4.11377 1.47059L12.3391 3.2327L20.5658 1.47059C17.8818 0.490196 15.1626 0 12.4081 0Z" fill="#D4482B"/>
<path d="M12.3403 3.23281L19.0436 4.67053L20.5657 1.4707L12.3403 3.23281Z" fill="#DF5331"/>
<path d="M21.4467 12.3399L23.2088 4.11328L20.0103 5.63664L21.4467 12.3399Z" fill="#FFFFFE"/>
<path d="M20.0103 5.63672V19.0433L21.4467 12.34L20.0103 5.63672Z" fill="#FFFFFE"/>
<path d="M23.2089 20.5666V4.11328L21.4468 12.3399L23.2089 20.5666Z" fill="#FFFFFE"/>
<path d="M21.4467 12.3408L20.0103 19.0441L23.2088 20.5675L21.4467 12.3408Z" fill="#FFFFFE"/>
<path d="M21.4467 12.3399L23.2088 4.11328L20.0103 5.63664L21.4467 12.3399Z" fill="#DF5331"/>
<path d="M20.0103 5.63672V19.0433L21.4467 12.34L20.0103 5.63672Z" fill="#F2BB38"/>
<path d="M24.6795 12.2238C24.6795 9.50276 24.1893 6.79925 23.2089 4.11328L21.4468 12.3399L23.2089 20.5666C24.1893 17.7258 24.6795 14.9448 24.6795 12.2238Z" fill="#AC382B"/>
<path d="M21.4467 12.3408L20.0103 19.0441L23.2088 20.5675L21.4467 12.3408Z" fill="#D4482B"/>
<path d="M12.3403 21.4459L20.5657 23.2093L19.0436 20.0107H19.0423H19.0436L12.3403 21.4459Z" fill="#FFFFFE"/>
<path d="M19.0423 20.0107H5.63574L12.339 21.4459L19.0423 20.0107Z" fill="#FFFFFE"/>
<path d="M4.11377 23.2087H20.5658L12.3404 21.4453L4.11377 23.2087Z" fill="#FFFFFE"/>
<path d="M12.3391 21.4459L5.63583 20.0107L4.11377 23.2093L12.3391 21.4459Z" fill="#FFFFFE"/>
<path d="M12.3403 21.4459L20.5657 23.2093L19.0436 20.0107H19.0423H19.0436L12.3403 21.4459Z" fill="#F2BB38"/>
<path d="M19.0423 20.0107H5.63574L12.339 21.4459L19.0423 20.0107Z" fill="#DF5331"/>
<path d="M12.0864 24.6793C14.8746 24.6793 17.7011 24.1891 20.5658 23.2087L12.3404 21.4453L4.11377 23.2087C6.64066 24.1891 9.2982 24.6793 12.0864 24.6793Z" fill="#D4482B"/>
<path d="M12.3391 21.4459L5.63583 20.0107L4.11377 23.2093L12.3391 21.4459Z" fill="#E3672A"/>
<path d="M3.23281 12.3408L1.4707 20.5675L4.66923 19.0441V19.0428V19.0441L3.23281 12.3408Z" fill="#AC382B"/>
<path d="M4.66933 19.042V5.63672L3.23291 12.34L4.66933 19.042Z" fill="#DF5331"/>
<path d="M0 12.2238C0 14.9872 0.490196 17.7681 1.47059 20.5666L3.2327 12.3399L1.47059 4.11328C0.490196 6.7569 0 9.4604 0 12.2238Z" fill="#DF5331"/>
<path d="M3.23281 12.3399L4.66923 5.63664L1.4707 4.11328L3.23281 12.3399Z" fill="#F2BB38"/>
<path d="M19.0435 4.67053L20.5655 1.4707L23.2087 4.11387L20.0102 5.63723L19.0435 4.67053Z" fill="#E3672A"/>
<path d="M5.63723 4.67053L4.66923 5.63723L1.4707 4.11387L4.11387 1.4707C5.12944 3.60392 5.63723 4.67053 5.63723 4.67053Z" fill="#D4482B"/>
<path d="M4.66923 19.042L5.63593 20.01L4.11387 23.2085L1.4707 20.5666L4.66923 19.042Z" fill="#F2BB38"/>
<path d="M20.5658 23.2092L23.209 20.5673L20.0105 19.0439L19.0425 20.0106L20.5658 23.2092Z" fill="#E3672A"/>
<path d="M4.66895 5.63759L5.63694 4.6709H19.0435L20.0102 5.63759V19.0442L19.0422 20.0109H5.63564L4.66895 19.0429V5.63759Z" fill="#EA862D"/>
</svg>
