<svg width="25" height="25" viewBox="0 0 25 25" fill="none" xmlns="http://www.w3.org/2000/svg">
<path d="M5.63564 4.6709L4.66895 5.63759V19.0442L5.63564 20.0109H19.0422L20.0102 19.0442V5.63759L19.0422 4.6709H5.63564Z" fill="#FFFFFE"/>
<path d="M12.3391 3.23281L4.11377 1.4707L5.63583 4.67053H5.63713H5.63583L12.3391 3.23281Z" fill="#95236C"/>
<path d="M5.63721 4.67014H19.0425L12.3392 3.23242L5.63721 4.67014Z" fill="#C7669B"/>
<path d="M12.0405 0C9.35303 0 6.7108 0.490196 4.11377 1.47059L12.3391 3.2327L20.5658 1.47059C17.5697 0.490196 14.7279 0 12.0405 0Z" fill="#5B1D45"/>
<path d="M12.3389 3.23281L19.0422 4.67053L20.5655 1.4707L12.3389 3.23281Z" fill="#8F2568"/>
<path d="M21.447 12.3399L23.2091 4.11328L20.0093 5.63664H20.0106L21.447 12.3399Z" fill="#FFFFFE"/>
<path d="M20.0103 5.63672V19.0433L21.4467 12.34L20.0103 5.63672Z" fill="#FFFFFE"/>
<path d="M23.2089 20.5666V4.11328L21.4468 12.3399L23.2089 20.5666Z" fill="#FFFFFE"/>
<path d="M21.4467 12.3408L20.0103 19.0441L23.2088 20.5675L21.4467 12.3408Z" fill="#FFFFFE"/>
<path d="M21.447 12.3399L23.2091 4.11328L20.0093 5.63664H20.0106L21.447 12.3399Z" fill="#95236C"/>
<path d="M20.0103 5.63672V19.0433L21.4467 12.34L20.0103 5.63672Z" fill="#C35893"/>
<path d="M24.6795 11.9481C24.6795 9.27727 24.1893 6.66568 23.2089 4.11328L21.4468 12.3399L23.2089 20.5666C24.1893 17.4917 24.6795 14.6188 24.6795 11.9481Z" fill="#451223"/>
<path d="M21.4467 12.3408L20.0103 19.0441L23.2088 20.5675L21.4467 12.3408Z" fill="#5B1D45"/>
<path d="M12.3389 21.4459L20.5655 23.2093L19.0435 20.0107H19.0422L12.3389 21.4459Z" fill="#FFFFFE"/>
<path d="M19.0423 20.0107H5.63574L12.339 21.4459L19.0423 20.0107Z" fill="#FFFFFE"/>
<path d="M4.11377 23.2087H20.5658L12.3391 21.4453L4.11377 23.2087Z" fill="#FFFFFE"/>
<path d="M12.3391 21.4459L5.63583 20.0107L4.11377 23.2093L12.3391 21.4459Z" fill="#FFFFFE"/>
<path d="M12.3389 21.4459L20.5655 23.2093L19.0435 20.0107H19.0422L12.3389 21.4459Z" fill="#C7669B"/>
<path d="M19.0423 20.0107H5.63574L12.339 21.4459L19.0423 20.0107Z" fill="#95236C"/>
<path d="M12.3162 24.6793C15.0625 24.6793 17.8123 24.1891 20.5658 23.2087L12.3391 21.4453L4.11377 23.2087C6.83575 24.1891 9.56989 24.6793 12.3162 24.6793Z" fill="#5B1D45"/>
<path d="M12.3391 21.4459L5.63583 20.0107L4.11377 23.2093L12.3391 21.4459Z" fill="#95236C"/>
<path d="M3.23411 12.3408L1.4707 20.5675L4.66923 19.0441V19.0428V19.0441L3.23411 12.3408Z" fill="#5B1D45"/>
<path d="M4.66901 19.042V5.63672L3.23389 12.34L4.66901 19.042Z" fill="#95236C"/>
<path d="M0 12.4995C0 15.2126 0.490196 17.9016 1.47059 20.5666L3.234 12.3399L1.47059 4.11328C0.490196 6.99101 0 9.78643 0 12.4995Z" fill="#95236C"/>
<path d="M3.23411 12.3399L4.66923 5.63664L1.4707 4.11328L3.23411 12.3399Z" fill="#C7669B"/>
<path d="M19.0425 4.67053L20.5658 1.4707L23.209 4.11387L20.0105 5.63723L19.0425 4.67053Z" fill="#5B1D45"/>
<path d="M5.63723 4.67053L4.66923 5.63723L1.4707 4.11387L4.11387 1.4707L5.63723 4.67053Z" fill="#591C43"/>
<path d="M4.66923 19.042L5.63593 20.01L4.11387 23.2085L1.4707 20.5666L4.66923 19.042Z" fill="#C7669B"/>
<path d="M20.5658 23.2092L23.209 20.5673L20.0105 19.0439L19.0425 20.0106L20.5658 23.2092Z" fill="#95236C"/>
<path d="M4.66895 5.63759L5.63694 4.6709H19.0422L20.0102 5.63759V19.0442L19.0422 20.0109H5.63564L4.66895 19.0429V5.63759Z" fill="#B13783"/>
</svg>
