<svg width="25" height="25" viewBox="0 0 25 25" fill="none" xmlns="http://www.w3.org/2000/svg">
<path d="M5.63564 4.6709L4.66895 5.63759V19.0442L5.63564 20.0109H19.0422L20.0089 19.0442V5.63759L19.0422 4.6709H5.63564Z" fill="#FFFFFE"/>
<path d="M12.3389 3.23281L4.1123 1.4707L5.63566 4.67053H5.63696H5.63566L12.3389 3.23281Z" fill="#6B3982"/>
<path d="M5.63721 4.67014H19.0425L12.3392 3.23242L5.63721 4.67014Z" fill="#90639B"/>
<path d="M11.9484 0C9.27735 0 6.66533 0.490196 4.1123 1.47059L12.3389 3.2327L20.5656 1.47059C17.4918 0.490196 14.6194 0 11.9484 0Z" fill="#3F2457"/>
<path d="M12.3389 3.23281L19.0422 4.67053L20.5655 1.4707L12.3389 3.23281Z" fill="#5F2A7A"/>
<path d="M21.447 12.3399L23.2078 4.11328L20.0093 5.63664L21.447 12.3399Z" fill="#FFFFFE"/>
<path d="M20.0093 5.63672V19.0433L21.447 12.34L20.0093 5.63672Z" fill="#FFFFFE"/>
<path d="M23.2076 20.5666V4.11328L21.4468 12.3399L23.2076 20.5666Z" fill="#FFFFFE"/>
<path d="M21.447 12.3408L20.0093 19.0441L23.2078 20.5675L21.447 12.3408Z" fill="#FFFFFE"/>
<path d="M21.447 12.3399L23.2078 4.11328L20.0093 5.63664L21.447 12.3399Z" fill="#602E7C"/>
<path d="M20.0093 5.63672V19.0433L21.447 12.34L20.0093 5.63672Z" fill="#90639B"/>
<path d="M24.6782 12.5914C24.6782 9.80338 24.188 6.97733 23.2076 4.11328L21.4468 12.3399L23.2076 20.5666C24.188 18.0379 24.6782 15.3795 24.6782 12.5914Z" fill="#311B44"/>
<path d="M21.447 12.3408L20.0093 19.0441L23.2078 20.5675L21.447 12.3408Z" fill="#3F2457"/>
<path d="M12.3389 21.4459L20.5655 23.2093L19.0422 20.0107L12.3389 21.4459Z" fill="#FFFFFE"/>
<path d="M19.0423 20.0107H5.63574L12.339 21.4459L19.0423 20.0107Z" fill="#FFFFFE"/>
<path d="M4.1123 23.2087H20.5656L12.3389 21.4453L4.1123 23.2087Z" fill="#FFFFFE"/>
<path d="M12.3389 21.4459L5.63566 20.0107L4.1123 23.2093L12.3389 21.4459Z" fill="#FFFFFE"/>
<path d="M12.3389 21.4459L20.5655 23.2093L19.0422 20.0107L12.3389 21.4459Z" fill="#90639B"/>
<path d="M19.0423 20.0107H5.63574L12.339 21.4459L19.0423 20.0107Z" fill="#602E7C"/>
<path d="M20.5656 23.2087L12.3389 21.4453L4.1123 23.2087C6.75701 24.1891 9.46095 24.6793 12.2241 24.6793C14.9873 24.6793 17.7678 24.1891 20.5656 23.2087Z" fill="#3F2457"/>
<path d="M12.3389 21.4459L5.63566 20.0107L4.1123 23.2093L12.3389 21.4459Z" fill="#6B4187"/>
<path d="M3.23281 12.3408L1.4707 20.5675L4.66923 19.0441V19.0428V19.0441L3.23281 12.3408Z" fill="#3F2457"/>
<path d="M4.66933 19.042V5.63672L3.23291 12.34L4.66933 19.042Z" fill="#5F2A7A"/>
<path d="M1.47059 20.5666L3.2327 12.3399L1.47059 4.11328C0.490196 6.991 0 9.78642 0 12.4995C0 15.2126 0.490196 17.9017 1.47059 20.5666Z" fill="#5F2A7A"/>
<path d="M3.23281 12.3399L4.66923 5.63664L1.4707 4.11328L3.23281 12.3399Z" fill="#90639B"/>
<path d="M19.0425 4.67053L20.5658 1.4707L23.2077 4.11387L20.0092 5.63723L19.0425 4.67053Z" fill="#3D2254"/>
<path d="M5.63723 4.67053L4.66923 5.63723L1.4707 4.11387L4.11257 1.4707L5.63723 4.67053Z" fill="#3C2254"/>
<path d="M4.66923 19.042L5.63593 20.01L4.11257 23.2085L1.4707 20.5666L4.66923 19.042Z" fill="#90639B"/>
<path d="M20.5658 23.2092L23.2077 20.5673L20.0092 19.0439L19.0425 20.0106L20.5658 23.2092Z" fill="#602E7C"/>
<path d="M4.66895 5.63759L5.63694 4.6709H19.0422L20.0089 5.63759V19.0442L19.0422 20.0109H5.63564L4.66895 19.0429V5.63759Z" fill="#6B4187"/>
</svg>
