<svg width="25" height="25" viewBox="0 0 25 25" fill="none" xmlns="http://www.w3.org/2000/svg">
<path d="M5.63596 4.6709L4.66797 5.63759V19.0442L5.63596 20.0109H19.0425L20.0105 19.0442V5.63759L19.0425 4.6709H5.63596Z" fill="#FFFFFE"/>
<path d="M12.3389 3.23281L4.1123 1.4707L5.63566 4.67053L12.3389 3.23281Z" fill="#AE252A"/>
<path d="M5.63721 4.67014H19.0425L12.3392 3.23242L5.63721 4.67014Z" fill="#E15A73"/>
<path d="M12.0914 0C9.39438 0 6.7347 0.490196 4.1123 1.47059L12.3389 3.2327L20.5643 1.47059C17.6126 0.490196 14.7883 0 12.0914 0Z" fill="#57171C"/>
<path d="M12.3389 3.23281L19.0422 4.67053L20.5642 1.4707L12.3389 3.23281Z" fill="#8D2326"/>
<path d="M21.4457 12.3399L23.2078 4.11328L20.0093 5.63664H20.0106L21.4457 12.3399Z" fill="#FFFFFE"/>
<path d="M20.0103 5.63672V19.0433L21.4454 12.34L20.0103 5.63672Z" fill="#FFFFFE"/>
<path d="M23.2074 20.5666V4.11328L21.4453 12.3399L23.2074 20.5666Z" fill="#FFFFFE"/>
<path d="M21.4454 12.3408L20.0103 19.0441L23.2075 20.5675L21.4454 12.3408Z" fill="#FFFFFE"/>
<path d="M21.4457 12.3399L23.2078 4.11328L20.0093 5.63664H20.0106L21.4457 12.3399Z" fill="#942427"/>
<path d="M20.0103 5.63672V19.0433L21.4454 12.34L20.0103 5.63672Z" fill="#DE4863"/>
<path d="M24.678 12.1727C24.678 9.461 24.1878 6.77452 23.2074 4.11328L21.4453 12.3399L23.2074 20.5666C24.1878 17.6824 24.678 14.8845 24.678 12.1727Z" fill="#441519"/>
<path d="M21.4454 12.3408L20.0103 19.0441L23.2075 20.5675L21.4454 12.3408Z" fill="#57171C"/>
<path d="M12.3389 21.4459L20.5655 23.2093L19.0422 20.0107L12.3389 21.4459Z" fill="#FFFFFE"/>
<path d="M19.0423 20.0107H5.63574L12.339 21.4459L19.0423 20.0107Z" fill="#FFFFFE"/>
<path d="M4.11377 23.2087H20.5658L12.3391 21.4453L4.11377 23.2087Z" fill="#FFFFFE"/>
<path d="M12.3391 21.4459L5.63583 20.0107L4.11377 23.2093L12.3391 21.4459Z" fill="#FFFFFE"/>
<path d="M12.3389 21.4459L20.5655 23.2093L19.0422 20.0107L12.3389 21.4459Z" fill="#E15A73"/>
<path d="M19.0423 20.0107H5.63574L12.339 21.4459L19.0423 20.0107Z" fill="#942427"/>
<path d="M12.1324 24.6793C14.9122 24.6793 17.7233 24.1891 20.5658 23.2087L12.3391 21.4453L4.11377 23.2087C6.67967 24.1891 9.35254 24.6793 12.1324 24.6793Z" fill="#56161C"/>
<path d="M12.3391 21.4459L5.63583 20.0107L4.11377 23.2093L12.3391 21.4459Z" fill="#C62532"/>
<path d="M3.23281 12.3408L1.4707 20.5675L4.66923 19.0441L4.66793 19.0428V19.0441L3.23281 12.3408Z" fill="#57171C"/>
<path d="M4.66803 19.042V5.63672L3.23291 12.34L4.66803 19.042Z" fill="#8D2326"/>
<path d="M0 12.2544C0 15.0122 0.490196 17.7829 1.47059 20.5666L3.2327 12.3399L1.47059 4.11328C0.490196 6.78291 0 9.49662 0 12.2544Z" fill="#8D2326"/>
<path d="M3.23281 12.3399L4.66793 5.63664L1.4707 4.11328L3.23281 12.3399Z" fill="#E15A73"/>
<path d="M19.0425 4.67053L20.5645 1.4707L23.2077 4.11387L20.0105 5.63723L19.0425 4.67053Z" fill="#57171C"/>
<path d="M5.63723 4.67053L4.66793 5.63723L1.4707 4.11387L4.11257 1.4707L5.63723 4.67053Z" fill="#54161C"/>
<path d="M4.66793 19.042L5.63593 20.01L4.11387 23.2085L1.4707 20.5666L4.66793 19.042Z" fill="#E15A73"/>
<path d="M20.5658 23.2092L23.2077 20.5673L20.0105 19.0439L19.0425 20.0106L20.5658 23.2092Z" fill="#942427"/>
<path d="M4.66797 5.63759L5.63726 4.6709H19.0425L20.0105 5.63759V19.0442L19.0425 20.0109H5.63596L4.66797 19.0429V5.63759Z" fill="#C62532"/>
</svg>
